{
  "accessors": [
    {
      "bufferView": 2,
      "componentType": 5126,
      "count": 65533,
      "max": [
        115.5428695678711,
        67.95792388916016,
        66.47079467773438
      ],
      "min": [
        -115.55024719238281,
        -113.15470123291016,
        -10.336395263671875
      ],
      "type": "VEC3"
    },
    {
      "bufferView": 2,
      "byteOffset": 786396,
      "componentType": 5126,
      "count": 65533,
      "max": [
        0.999976634979248,
        0.9999493360519409,
        1.0
      ],
      "min": [
        -0.999616265296936,
        -0.9980940222740173,
        -0.9980981349945068
      ],
      "type": "VEC3"
    },
    {
      "bufferView": 1,
      "componentType": 5126,
      "count": 65533,
      "max": [
        0.9995620250701904,
        0.47400999069213867
      ],
      "min": [
        0.00024399999529123306,
        0.0002519999979995191
      ],
      "type": "VEC2"
    },
    {
      "bufferView": 0,
      "componentType": 5125,
      "count": 271980,
      "type": "SCALAR"
    },
    {
      "bufferView": 2,
      "byteOffset": 1572792,
      "componentType": 5126,
      "count": 65532,
      "max": [
        53.29338836669922,
        12.579981803894043,
        64.78207397460938
      ],
      "min": [
        -76.4747543334961,
        -113.12788391113281,
        -10.314407348632813
      ],
      "type": "VEC3"
    },
    {
      "bufferView": 2,
      "byteOffset": 2359176,
      "componentType": 5126,
      "count": 65532,
      "max": [
        0.9998965859413147,
        0.9999802112579346,
        0.999995231628418
      ],
      "min": [
        -0.9999763369560242,
        -0.9999114871025085,
        -0.9980981349945068
      ],
      "type": "VEC3"
    },
    {
      "bufferView": 1,
      "byteOffset": 524264,
      "componentType": 5126,
      "count": 65532,
      "max": [
        0.9997249841690063,
        0.48901399970054626
      ],
      "min": [
        0.00024399999529123306,
        0.0065460000187158585
      ],
      "type": "VEC2"
    },
    {
      "bufferView": 0,
      "byteOffset": 1087920,
      "componentType": 5125,
      "count": 235227,
      "type": "SCALAR"
    },
    {
      "bufferView": 2,
      "byteOffset": 3145560,
      "componentType": 5126,
      "count": 65532,
      "max": [
        57.886627197265625,
        -36.3601188659668,
        63.91948699951172
      ],
      "min": [
        -58.92167282104492,
        -113.13011932373047,
        20.9222412109375
      ],
      "type": "VEC3"
    },
    {
      "bufferView": 2,
      "byteOffset": 3931944,
      "componentType": 5126,
      "count": 65532,
      "max": [
        0.9999940991401672,
        0.9999832510948181,
        0.9999880194664001
      ],
      "min": [
        -0.9996652603149414,
        -0.9977507591247559,
        -0.9787203669548035
      ],
      "type": "VEC3"
    },
    {
      "bufferView": 1,
      "byteOffset": 1048520,
      "componentType": 5126,
      "count": 65532,
      "max": [
        0.9997130036354065,
        0.4519039988517761
      ],
      "min": [
        0.00024399999529123306,
        0.1799429953098297
      ],
      "type": "VEC2"
    },
    {
      "bufferView": 0,
      "byteOffset": 2028828,
      "componentType": 5125,
      "count": 199623,
      "type": "SCALAR"
    },
    {
      "bufferView": 2,
      "byteOffset": 4718328,
      "componentType": 5126,
      "count": 65532,
      "max": [
        115.5097885131836,
        18.488189697265625,
        66.0582275390625
      ],
      "min": [
        -64.72017669677734,
        -113.12788391113281,
        2.2115049362182617
      ],
      "type": "VEC3"
    },
    {
      "bufferView": 2,
      "byteOffset": 5504712,
      "componentType": 5126,
      "count": 65532,
      "max": [
        0.9999833703041077,
        0.9999480247497559,
        0.9999940991401672
      ],
      "min": [
        -0.9999780058860779,
        -0.9996432662010193,
        -0.999517023563385
      ],
      "type": "VEC3"
    },
    {
      "bufferView": 1,
      "byteOffset": 1572776,
      "componentType": 5126,
      "count": 65532,
      "max": [
        0.9997469782829285,
        0.4737359881401062
      ],
      "min": [
        0.00024399999529123306,
        0.0005540000274777412
      ],
      "type": "VEC2"
    },
    {
      "bufferView": 0,
      "byteOffset": 2827320,
      "componentType": 5125,
      "count": 214002,
      "type": "SCALAR"
    },
    {
      "bufferView": 2,
      "byteOffset": 6291096,
      "componentType": 5126,
      "count": 65532,
      "max": [
        115.5097885131836,
        15.830418586730957,
        67.17760467529297
      ],
      "min": [
        -59.71826934814453,
        -113.12788391113281,
        -6.898453235626221
      ],
      "type": "VEC3"
    },
    {
      "bufferView": 2,
      "byteOffset": 7077480,
      "componentType": 5126,
      "count": 65532,
      "max": [
        0.9998250007629395,
        0.9998812675476074,
        0.9999980926513672
      ],
      "min": [
        -0.9999526143074036,
        -0.9997249841690063,
        -0.9982120990753174
      ],
      "type": "VEC3"
    },
    {
      "bufferView": 1,
      "byteOffset": 2097032,
      "componentType": 5126,
      "count": 65532,
      "max": [
        0.99965500831604,
        0.4547950029373169
      ],
      "min": [
        0.00024399999529123306,
        0.0012400000123307109
      ],
      "type": "VEC2"
    },
    {
      "bufferView": 0,
      "byteOffset": 3683328,
      "componentType": 5125,
      "count": 194994,
      "type": "SCALAR"
    },
    {
      "bufferView": 2,
      "byteOffset": 7863864,
      "componentType": 5126,
      "count": 65532,
      "max": [
        115.5097885131836,
        15.873032569885254,
        64.6847915649414
      ],
      "min": [
        -58.71567916870117,
        -112.89437866210938,
        9.192520141601563
      ],
      "type": "VEC3"
    },
    {
      "bufferView": 2,
      "byteOffset": 8650248,
      "componentType": 5126,
      "count": 65532,
      "max": [
        0.9998818635940552,
        0.9999914765357971,
        0.9999995827674866
      ],
      "min": [
        -0.9998312592506409,
        -0.999550461769104,
        -0.9996749758720398
      ],
      "type": "VEC3"
    },
    {
      "bufferView": 1,
      "byteOffset": 2621288,
      "componentType": 5126,
      "count": 65532,
      "max": [
        0.9996920228004456,
        0.4519039988517761
      ],
      "min": [
        0.00024399999529123306,
        0.01853800006210804
      ],
      "type": "VEC2"
    },
    {
      "bufferView": 0,
      "byteOffset": 4463304,
      "componentType": 5125,
      "count": 188295,
      "type": "SCALAR"
    },
    {
      "bufferView": 2,
      "byteOffset": 9436632,
      "componentType": 5126,
      "count": 65532,
      "max": [
        76.84632873535156,
        -12.066885948181152,
        66.47079467773438
      ],
      "min": [
        -115.5120620727539,
        -113.15453338623047,
        -8.25067138671875
      ],
      "type": "VEC3"
    },
    {
      "bufferView": 2,
      "byteOffset": 10223016,
      "componentType": 5126,
      "count": 65532,
      "max": [
        0.9999901056289673,
        0.9999582171440125,
        0.9999967813491821
      ],
      "min": [
        -0.9999182224273682,
        -0.9998207688331604,
        -0.993022620677948
      ],
      "type": "VEC3"
    },
    {
      "bufferView": 1,
      "byteOffset": 3145544,
      "componentType": 5126,
      "count": 65532,
      "max": [
        0.9996910095214844,
        0.4719190001487732
      ],
      "min": [
        0.00024399999529123306,
        0.037415001541376114
      ],
      "type": "VEC2"
    },
    {
      "bufferView": 0,
      "byteOffset": 5216484,
      "componentType": 5125,
      "count": 221604,
      "type": "SCALAR"
    },
    {
      "bufferView": 2,
      "byteOffset": 11009400,
      "componentType": 5126,
      "count": 65532,
      "max": [
        28.497146606445313,
        13.418418884277344,
        42.27714538574219
      ],
      "min": [
        -115.54679107666016,
        -65.33517456054688,
        -10.313989639282227
      ],
      "type": "VEC3"
    },
    {
      "bufferView": 2,
      "byteOffset": 11795784,
      "componentType": 5126,
      "count": 65532,
      "max": [
        0.999714732170105,
        0.9999974966049194,
        0.9999962449073792
      ],
      "min": [
        -0.9997230172157288,
        -0.9992296695709229,
        -0.9967904686927795
      ],
      "type": "VEC3"
    },
    {
      "bufferView": 1,
      "byteOffset": 3669800,
      "componentType": 5126,
      "count": 65532,
      "max": [
        0.9997339844703674,
        0.4726240038871765
      ],
      "min": [
        0.00024399999529123306,
        0.024658000096678734
      ],
      "type": "VEC2"
    },
    {
      "bufferView": 0,
      "byteOffset": 6102900,
      "componentType": 5125,
      "count": 199689,
      "type": "SCALAR"
    },
    {
      "bufferView": 2,
      "byteOffset": 12582168,
      "componentType": 5126,
      "count": 65534,
      "max": [
        115.52935791015625,
        63.54265594482422,
        58.9167594909668
      ],
      "min": [
        -115.54486846923828,
        -113.12788391113281,
        -10.327545166015625
      ],
      "type": "VEC3"
    },
    {
      "bufferView": 2,
      "byteOffset": 13368576,
      "componentType": 5126,
      "count": 65534,
      "max": [
        0.9999867677688599,
        0.9999859929084778,
        0.999995768070221
      ],
      "min": [
        -0.9999724626541138,
        -0.9998971223831177,
        -0.9922230243682861
      ],
      "type": "VEC3"
    },
    {
      "bufferView": 1,
      "byteOffset": 4194056,
      "componentType": 5126,
      "count": 65534,
      "max": [
        0.9997559785842896,
        0.4830099940299988
      ],
      "min": [
        0.00024399999529123306,
        0.0022539999336004257
      ],
      "type": "VEC2"
    },
    {
      "bufferView": 0,
      "byteOffset": 6901656,
      "componentType": 5125,
      "count": 208149,
      "type": "SCALAR"
    },
    {
      "bufferView": 2,
      "byteOffset": 14154984,
      "componentType": 5126,
      "count": 65532,
      "max": [
        115.5110092163086,
        62.92005920410156,
        64.19255828857422
      ],
      "min": [
        -115.51534271240234,
        -113.14989471435547,
        -10.329986572265625
      ],
      "type": "VEC3"
    },
    {
      "bufferView": 2,
      "byteOffset": 14941368,
      "componentType": 5126,
      "count": 65532,
      "max": [
        0.9999901056289673,
        0.999967098236084,
        0.9999972581863403
      ],
      "min": [
        -0.9999724626541138,
        -0.9997542500495911,
        -0.9942867755889893
      ],
      "type": "VEC3"
    },
    {
      "bufferView": 1,
      "byteOffset": 4718328,
      "componentType": 5126,
      "count": 65532,
      "max": [
        0.999692976474762,
        0.48879799246788025
      ],
      "min": [
        0.00024399999529123306,
        0.000291000003926456
      ],
      "type": "VEC2"
    },
    {
      "bufferView": 0,
      "byteOffset": 7734252,
      "componentType": 5125,
      "count": 178503,
      "type": "SCALAR"
    },
    {
      "bufferView": 2,
      "byteOffset": 15727752,
      "componentType": 5126,
      "count": 65532,
      "max": [
        115.5400619506836,
        8.707656860351563,
        49.17704772949219
      ],
      "min": [
        -56.6581916809082,
        -56.835693359375,
        -10.215225219726563
      ],
      "type": "VEC3"
    },
    {
      "bufferView": 2,
      "byteOffset": 16514136,
      "componentType": 5126,
      "count": 65532,
      "max": [
        0.9998024702072144,
        0.9999735355377197,
        0.9999890923500061
      ],
      "min": [
        -0.9999503493309021,
        -0.9999874830245972,
        -0.9998582601547241
      ],
      "type": "VEC3"
    },
    {
      "bufferView": 1,
      "byteOffset": 5242584,
      "componentType": 5126,
      "count": 65532,
      "max": [
        0.9997460246086121,
        0.4519039988517761
      ],
      "min": [
        0.00024399999529123306,
        0.053043998777866364
      ],
      "type": "VEC2"
    },
    {
      "bufferView": 0,
      "byteOffset": 8448264,
      "componentType": 5125,
      "count": 218589,
      "type": "SCALAR"
    },
    {
      "bufferView": 2,
      "byteOffset": 17300520,
      "componentType": 5126,
      "count": 65532,
      "max": [
        115.41027069091797,
        9.620606422424316,
        58.873802185058594
      ],
      "min": [
        -75.98942565917969,
        -113.13011932373047,
        -10.313987731933594
      ],
      "type": "VEC3"
    },
    {
      "bufferView": 2,
      "byteOffset": 18086904,
      "componentType": 5126,
      "count": 65532,
      "max": [
        0.9999408721923828,
        0.9999929070472717,
        0.9999947547912598
      ],
      "min": [
        -0.9999696016311646,
        -0.9999570250511169,
        -0.9982567429542542
      ],
      "type": "VEC3"
    },
    {
      "bufferView": 1,
      "byteOffset": 5766840,
      "componentType": 5126,
      "count": 65532,
      "max": [
        0.9997519850730896,
        0.4557110071182251
      ],
      "min": [
        0.00024399999529123306,
        0.05302099883556366
      ],
      "type": "VEC2"
    },
    {
      "bufferView": 0,
      "byteOffset": 9322620,
      "componentType": 5125,
      "count": 206655,
      "type": "SCALAR"
    },
    {
      "bufferView": 2,
      "byteOffset": 18873288,
      "componentType": 5126,
      "count": 54340,
      "max": [
        28.10009002685547,
        -14.481243133544922,
        58.42637634277344
      ],
      "min": [
        -76.02096557617188,
        -113.12788391113281,
        -5.625014781951904
      ],
      "type": "VEC3"
    },
    {
      "bufferView": 2,
      "byteOffset": 19525368,
      "componentType": 5126,
      "count": 54340,
      "max": [
        0.9997016191482544,
        0.9997924566268921,
        0.9999967813491821
      ],
      "min": [
        -0.9994527697563171,
        -0.9999604821205139,
        -0.9992234706878662
      ],
      "type": "VEC3"
    },
    {
      "bufferView": 1,
      "byteOffset": 6291096,
      "componentType": 5126,
      "count": 54340,
      "max": [
        0.9996529817581177,
        0.4625059962272644
      ],
      "min": [
        0.00024399999529123306,
        0.0813010036945343
      ],
      "type": "VEC2"
    },
    {
      "bufferView": 0,
      "byteOffset": 10149240,
      "componentType": 5125,
      "count": 147288,
      "type": "SCALAR"
    }
  ],
  "asset": {
    "extras": {
      "author": "Metazeon (https://sketchfab.com/Metazeon)",
      "license": "CC-BY-4.0 (http://creativecommons.org/licenses/by/4.0/)",
      "source": "https://sketchfab.com/3d-models/rock-reef-promontory-cape-foreland-02c720b2f2c44e0b9dc36a3b727c39d4",
      "title": "Rock, reef, promontory, cape, foreland"
    },
    "generator": "Sketchfab-16.95.0",
    "version": "2.0"
  },
  "bufferViews": [
    {
      "buffer": 0,
      "byteLength": 10738392,
      "name": "floatBufferViews",
      "target": 34963
    },
    {
      "buffer": 0,
      "byteLength": 6725816,
      "byteOffset": 10738392,
      "byteStride": 8,
      "name": "floatBufferViews",
      "target": 34962
    },
    {
      "buffer": 0,
      "byteLength": 20177448,
      "byteOffset": 17464208,
      "byteStride": 12,
      "name": "floatBufferViews",
      "target": 34962
    }
  ],
  "buffers": [
    {
      "byteLength": 37641656,
      "uri": "scene.bin"
    }
  ],
  "extensionsUsed": [
    "KHR_materials_specular"
  ],
  "images": [
    {
      "uri": "textures/20250731_010_RC_LOD0_u0_v0_baseColor.png"
    }
  ],
  "materials": [
    {
      "doubleSided": true,
      "extensions": {
        "KHR_materials_specular": {
          "specularColorFactor": [
            1.0,
            1.0,
            1.0
          ],
          "specularFactor": 0.1
        }
      },
      "name": "20250731_010_RC_LOD0_u0_v0",
      "pbrMetallicRoughness": {
        "baseColorTexture": {
          "index": 0
        },
        "metallicFactor": 0.1,
        "roughnessFactor": 0.9
      }
    }
  ],
  "meshes": [
    {
      "name": "Object_0",
      "primitives": [
        {
          "attributes": {
            "NORMAL": 1,
            "POSITION": 0,
            "TEXCOORD_0": 2
          },
          "indices": 3,
          "material": 0,
          "mode": 4
        }
      ]
    },
    {
      "name": "Object_1",
      "primitives": [
        {
          "attributes": {
            "NORMAL": 5,
            "POSITION": 4,
            "TEXCOORD_0": 6
          },
          "indices": 7,
          "material": 0,
          "mode": 4
        }
      ]
    },
    {
      "name": "Object_2",
      "primitives": [
        {
          "attributes": {
            "NORMAL": 9,
            "POSITION": 8,
            "TEXCOORD_0": 10
          },
          "indices": 11,
          "material": 0,
          "mode": 4
        }
      ]
    },
    {
      "name": "Object_3",
      "primitives": [
        {
          "attributes": {
            "NORMAL": 13,
            "POSITION": 12,
            "TEXCOORD_0": 14
          },
          "indices": 15,
          "material": 0,
          "mode": 4
        }
      ]
    },
    {
      "name": "Object_4",
      "primitives": [
        {
          "attributes": {
            "NORMAL": 17,
            "POSITION": 16,
            "TEXCOORD_0": 18
          },
          "indices": 19,
          "material": 0,
          "mode": 4
        }
      ]
    },
    {
      "name": "Object_5",
      "primitives": [
        {
          "attributes": {
            "NORMAL": 21,
            "POSITION": 20,
            "TEXCOORD_0": 22
          },
          "indices": 23,
          "material": 0,
          "mode": 4
        }
      ]
    },
    {
      "name": "Object_6",
      "primitives": [
        {
          "attributes": {
            "NORMAL": 25,
            "POSITION": 24,
            "TEXCOORD_0": 26
          },
          "indices": 27,
          "material": 0,
          "mode": 4
        }
      ]
    },
    {
      "name": "Object_7",
      "primitives": [
        {
          "attributes": {
            "NORMAL": 29,
            "POSITION": 28,
            "TEXCOORD_0": 30
          },
          "indices": 31,
          "material": 0,
          "mode": 4
        }
      ]
    },
    {
      "name": "Object_8",
      "primitives": [
        {
          "attributes": {
            "NORMAL": 33,
            "POSITION": 32,
            "TEXCOORD_0": 34
          },
          "indices": 35,
          "material": 0,
          "mode": 4
        }
      ]
    },
    {
      "name": "Object_9",
      "primitives": [
        {
          "attributes": {
            "NORMAL": 37,
            "POSITION": 36,
            "TEXCOORD_0": 38
          },
          "indices": 39,
          "material": 0,
          "mode": 4
        }
      ]
    },
    {
      "name": "Object_10",
      "primitives": [
        {
          "attributes": {
            "NORMAL": 41,
            "POSITION": 40,
            "TEXCOORD_0": 42
          },
          "indices": 43,
          "material": 0,
          "mode": 4
        }
      ]
    },
    {
      "name": "Object_11",
      "primitives": [
        {
          "attributes": {
            "NORMAL": 45,
            "POSITION": 44,
            "TEXCOORD_0": 46
          },
          "indices": 47,
          "material": 0,
          "mode": 4
        }
      ]
    },
    {
      "name": "Object_12",
      "primitives": [
        {
          "attributes": {
            "NORMAL": 49,
            "POSITION": 48,
            "TEXCOORD_0": 50
          },
          "indices": 51,
          "material": 0,
          "mode": 4
        }
      ]
    }
  ],
  "nodes": [
    {
      "children": [
        1
      ],
      "matrix": [
        1.0,
        0.0,
        0.0,
        0.0,
        0.0,
        2.220446049250313e-16,
        -1.0,
        0.0,
        0.0,
        1.0,
        2.220446049250313e-16,
        0.0,
        0.0,
        0.0,
        0.0,
        1.0
      ],
      "name": "Sketchfab_model"
    },
    {
      "children": [
        2,
        3,
        4,
        5,
        6,
        7,
        8,
        9,
        10,
        11,
        12,
        13,
        14
      ],
      "name": "20250731_010_RC_LOD0.obj.cleaner.materialmerger.gles"
    },
    {
      "mesh": 0,
      "name": "Object_2"
    },
    {
      "mesh": 1,
      "name": "Object_3"
    },
    {
      "mesh": 2,
      "name": "Object_4"
    },
    {
      "mesh": 3,
      "name": "Object_5"
    },
    {
      "mesh": 4,
      "name": "Object_6"
    },
    {
      "mesh": 5,
      "name": "Object_7"
    },
    {
      "mesh": 6,
      "name": "Object_8"
    },
    {
      "mesh": 7,
      "name": "Object_9"
    },
    {
      "mesh": 8,
      "name": "Object_10"
    },
    {
      "mesh": 9,
      "name": "Object_11"
    },
    {
      "mesh": 10,
      "name": "Object_12"
    },
    {
      "mesh": 11,
      "name": "Object_13"
    },
    {
      "mesh": 12,
      "name": "Object_14"
    }
  ],
  "samplers": [
    {
      "magFilter": 9729,
      "minFilter": 9987,
      "wrapS": 10497,
      "wrapT": 10497
    }
  ],
  "scene": 0,
  "scenes": [
    {
      "name": "Sketchfab_Scene",
      "nodes": [
        0
      ]
    }
  ],
  "textures": [
    {
      "sampler": 0,
      "source": 0
    }
  ]
}
